<svg width="196" height="127" viewBox="0 0 196 127" fill="none" xmlns="http://www.w3.org/2000/svg">
<path d="M57.9445 31.0646C49.606 33.4185 37.3793 38.6679 27.1472 44.2199C27.1392 43.7437 27.1163 43.2117 27.1232 42.7913C27.0703 42.1477 26.5303 41.6944 25.9425 41.7324C25.284 41.7294 24.8308 42.2694 24.8687 42.8572C24.9106 43.6831 24.9525 44.509 24.9685 45.4614C16.3911 50.2711 6.83357 56.7785 6.69453 61.8385C6.60699 63.2971 7.31251 65.2606 10.7517 66.4917C11.0197 66.5993 11.202 66.6102 11.4252 66.5504C11.7599 66.4607 12.0498 66.2037 12.1833 65.8092C12.3984 65.2731 12.1075 64.6336 11.5157 64.4334C8.86552 63.4692 8.86044 62.3345 8.86738 61.9141C8.99362 58.5915 15.9371 53.2629 25.0385 47.9541C25.1744 52.7012 25.2147 58.4307 25.2441 64.3425C25.2505 69.7223 25.3168 75.3253 25.4089 80.8017C18.6795 84.6977 13.0958 88.4062 12.019 90.1896C11.7331 90.6848 11.8567 91.3692 12.4226 91.6959C12.6498 91.8743 13.0144 91.8961 13.2933 91.8214C13.5165 91.7616 13.7655 91.5753 13.9289 91.2923C14.5156 90.3578 18.3072 87.548 25.438 83.3651C25.6871 95.6759 26.259 107.183 27.8964 113.74C28.7973 117.325 30.258 119.206 32.3083 119.494C32.8702 119.582 33.3873 119.504 33.9452 119.354C38.5757 118.114 44.0753 109.405 50.2203 99.0879C50.6696 98.3098 51.1338 97.5875 51.5013 96.9508L52.1956 95.7483C52.3739 95.5211 52.5224 95.1824 52.7415 94.8845C52.8272 94.9811 52.8979 95.022 52.9687 95.0628C53.5605 95.263 54.2 94.9721 54.4152 94.436C55.8136 90.952 56.3515 89.612 55.1789 89.0293C54.1327 88.4725 53.3677 89.6342 52.5768 90.9224C51.9492 91.9277 51.1583 93.2159 50.2857 94.6456L49.6323 95.7774C49.2239 96.4848 48.7597 97.2071 48.2955 97.9295C44.1815 104.892 36.5403 117.882 32.622 117.317C31.3159 117.129 30.4948 114.957 30.0871 113.213C28.4497 106.655 27.8549 94.6167 27.6576 82.0528C28.851 81.3743 30.0853 80.625 31.4462 79.9016C40.44 74.8607 48.9586 70.7245 51.2201 70.2382C51.8487 70.1295 52.2312 69.5487 52.0668 68.935C51.9582 68.3063 51.3773 67.9238 50.7636 68.0883C48.0409 68.6384 37.1762 74.061 27.5727 79.5044C27.5145 74.3777 27.4971 69.1802 27.4578 64.3473C27.4054 57.9035 27.372 51.7536 27.2321 46.7683C37.4752 41.034 49.91 35.6691 58.5833 33.2255C59.1412 33.076 59.5087 32.4393 59.3443 31.8257C59.1948 31.2678 58.5731 30.956 57.9445 31.0646Z" fill="white"/>
<path d="M64.8124 30.8987C64.2873 30.5012 63.6696 30.4275 63.1267 30.6328C60.0962 32.0428 59.8771 44.8377 59.9003 48.7182C59.9661 60.1214 60.5024 76.182 61.2897 90.5012C61.6699 97.2757 62.0599 102.971 62.4368 107.056C63.085 113.938 63.4766 114.73 64.6113 114.725C64.7379 114.751 64.8495 114.721 64.961 114.691C65.9652 114.422 66.1086 112.949 66.222 111.363C66.2399 110.761 65.7965 110.222 65.1938 110.204C65.123 110.163 65.0672 110.178 65.0115 110.193C64.0304 101.845 62.5648 77.1841 62.2273 56.2866C62.2123 56.2308 62.2532 56.16 62.294 56.0893C66.4672 42.6534 66.8608 32.7416 64.8124 30.8987ZM62.106 48.2468C62.1182 39.8124 62.9986 35.5105 63.5842 33.6793C63.9142 35.8033 63.8827 40.5953 62.106 48.2468Z" fill="white"/>
<path d="M83.8135 68.2616C83.2217 68.0614 82.6529 68.3932 82.4527 68.985C80.3292 76.0118 75.6056 83.3766 73.4995 83.1038C73.2464 83.052 71.1772 82.4703 71.1056 72.3842C71.0527 71.7406 70.5685 71.2724 69.9657 71.2545C69.3222 71.3074 68.854 71.7916 68.8361 72.3944C68.9354 80.7988 70.3355 84.9083 73.1301 85.2956C73.5654 85.3583 73.9709 85.3094 74.3614 85.2048C78.5456 84.0836 82.9583 74.8888 84.5927 69.6075C84.7371 69.0306 84.3904 68.406 83.8135 68.2616ZM69.4364 67.2706C72.3265 66.6755 71.314 63.12 69.2359 64.5139C68.154 65.1626 67.2307 67.742 69.4364 67.2706Z" fill="white"/>
<path d="M105.028 62.876C104.467 62.7874 103.857 63.19 103.768 63.7519C101.845 73.5353 99.3978 77.121 97.8168 77.2457C97.1732 77.2986 94.8509 76.6651 91.7327 67.0366C91.6131 66.5902 91.1738 66.2894 90.7533 66.2825C90.2771 66.2905 89.8049 66.5366 89.6864 66.9869C89.4563 67.4671 89.2412 68.0031 89.041 68.5949C88.1545 70.8655 87.0011 73.9251 85.4123 76.922C85.1822 77.4022 84.9631 77.7001 84.8256 77.8565C83.9119 76.0086 83.9729 67.9797 86.6367 64.7546C87.4057 63.831 88.5543 62.985 90.8219 64.5301C91.332 64.8717 92.0165 64.7481 92.3581 64.238C92.7148 63.7837 92.5762 63.0435 92.1219 62.6869C89.3441 60.8002 87.3507 61.3941 86.1313 62.1992C82.2392 64.8566 81.5505 73.8907 82.4555 77.7143C82.8182 79.2913 83.5336 80.1759 84.516 80.2715C86.0602 80.4557 87.0513 78.5756 87.3631 77.954C88.7068 75.3815 89.8383 72.6865 90.6023 70.6282C92.9201 76.8237 95.2785 79.6001 97.9385 79.4853C98.1617 79.4255 98.3998 79.4215 98.6229 79.3617C102.417 78.3452 104.71 70.615 105.919 64.192C106.049 63.5594 105.661 63.0055 105.028 62.876Z" fill="white"/>
<path d="M127.188 56.5199C126.637 56.249 125.982 56.4842 125.711 57.0351C122.664 63.2929 117.914 73.236 117.187 74.9855C116.957 75.4657 116.742 76.0017 116.526 76.5377C115.781 75.5415 114.939 74.631 113.915 73.7095C110.131 70.2987 106.686 67.0362 106.065 64.2726C105.593 62.067 106.201 59.8712 107.743 58.2621C109.01 56.9658 110.639 56.35 112.086 56.6199C112.648 56.7085 113.258 56.3059 113.332 55.6882C113.476 55.1114 113.073 54.5017 112.456 54.4281C110.32 54.0437 107.925 54.9246 106.134 56.72C104.083 58.8841 103.305 61.7832 103.915 64.7291C104.659 68.1771 108.205 71.592 112.444 75.3595C113.781 76.5559 114.768 77.7862 115.517 79.0205C112.75 86.1001 110.097 94.9432 113.124 96.6435C113.619 96.9294 114.166 96.9622 114.668 96.8277C115.561 96.5885 116.445 95.8731 117.281 94.7523C119.621 91.4345 121.221 84.9069 117.98 78.8389C118.385 77.8934 118.774 76.8922 119.219 75.876C119.961 74.1822 124.712 64.2392 127.703 57.9963C127.974 57.4454 127.739 56.7909 127.188 56.5199ZM116.874 90.556C115.966 93.1912 114.699 94.4875 114.212 94.6778C113.779 93.9565 113.637 90.5264 116.853 81.772C118.152 85.7291 117.301 89.2459 116.874 90.556Z" fill="white"/>
<path d="M145.237 52.401C144.631 52.145 143.991 52.436 143.776 52.972C142.24 56.6125 139.063 60.1545 135.957 60.3888C135.908 59.9834 135.859 59.5779 135.755 59.1874C134.456 52.7785 132.16 52.0186 130.928 52.1094C129.514 52.1892 128.389 53.5671 128.168 55.4202C127.859 55.3833 127.524 55.473 127.305 55.7709C125.447 57.7636 124.563 61.8274 126.599 65.4078C127.881 67.5158 129.832 68.5477 131.896 67.9946C133.849 67.4714 135.524 65.4678 135.896 62.6175C140.026 62.4079 143.935 58.2512 145.808 53.8625C146.064 53.2558 145.773 52.6162 145.237 52.401ZM131.384 65.8597C131.328 65.8747 131.328 65.8747 131.328 65.8747C129.918 66.1926 128.946 65.0181 128.569 64.2819C127.503 62.5345 127.247 59.7928 128.42 57.9237C129.04 59.7907 130.653 61.5709 133.72 62.3038C133.417 64.2984 132.332 65.6056 131.384 65.8597ZM133.605 59.6438C133.579 59.7704 133.609 59.882 133.639 59.9935C131.145 59.1669 130.332 57.4713 130.349 55.9719C130.388 55.0045 130.827 54.4087 131.106 54.334C131.4 54.315 132.632 55.1209 133.605 59.6438Z" fill="white"/>
<path d="M170.576 45.5518C170.025 45.2808 169.371 45.516 169.1 46.067C167.53 49.3577 164.82 51.5189 162.13 51.5221C159.917 51.5173 157.872 49.9125 156.507 47.0494C156.261 46.5771 155.669 46.377 155.167 46.5115C154.665 46.646 154.323 47.1561 154.402 47.6732C155.473 56.3555 151.51 68.1207 148.614 70.0328C148.253 70.249 148.127 70.2231 148.112 70.1673C147.773 70.0189 145.173 67.905 146.378 48.7469C146.396 48.1441 145.953 47.6052 145.35 47.5873C144.732 47.5136 144.208 48.0128 144.135 48.6305C142.85 69.7234 145.963 71.5204 146.953 72.0922C147.363 72.2814 148.04 72.5782 148.877 72.354C149.156 72.2793 149.476 72.1338 149.821 71.8618C151.706 70.6392 153.703 66.9349 155.093 62.0781C156.152 58.4456 156.706 54.7096 156.761 51.3462C158.315 52.9032 160.15 53.727 162.126 53.7358C165.641 53.6906 169.128 51.0821 171.091 47.0282C171.362 46.4772 171.127 45.8227 170.576 45.5518Z" fill="white"/>
<path d="M184.387 41.3131C183.795 41.1129 183.226 41.4447 183.026 42.0365C180.902 49.0633 176.179 56.428 174.073 56.1552C173.82 56.1035 171.75 55.5218 171.679 45.4357C171.626 44.7921 171.142 44.3239 170.539 44.306C169.895 44.3589 169.427 44.8431 169.409 45.4458C169.509 53.8503 170.909 57.9597 173.703 58.347C174.139 58.4098 174.544 58.3609 174.935 58.2563C179.119 57.1351 183.532 47.9403 185.166 42.659C185.31 42.0821 184.964 41.4575 184.387 41.3131ZM170.01 40.322C172.9 39.727 171.887 36.1715 169.809 37.5654C168.727 38.2141 167.804 40.7935 170.01 40.322Z" fill="white"/>
</svg>
