<svg width="85" height="98" viewBox="0 0 85 98" fill="none" xmlns="http://www.w3.org/2000/svg">
<path d="M83.1651 13.9401C81.887 9.38479 79.6778 2.73963 74.9271 0.771934C65.5865 -3.0905 56.3406 9.29199 53.5453 16.6072C51.6277 21.7505 50.2788 27.0895 49.523 32.5285C47.3644 27.0158 44.2985 21.9042 40.4531 17.4068C33.2369 9.27017 22.4793 4.84099 12.6582 11.1632C2.54987 17.6798 -1.65086 28.5139 1.19437 40.1748C4.0452 51.7092 11.5693 61.4406 20.0408 69.4808C30.0729 79.0053 41.7364 86.562 52.0831 95.7246L51.9874 95.9197C51.4103 97.0763 52.2853 96.9926 53.1555 96.6884C53.5377 97.037 53.9172 97.3712 54.2923 97.7211C55.8181 99.1381 62.5845 92.661 61.424 91.5811C60.8705 91.0656 60.3125 90.5657 59.7532 90.0586C69.7881 70.4955 83.8193 51.7878 84.8052 29.0895C85.0628 23.9852 84.5092 18.8716 83.1651 13.9401ZM77.444 29.0895C78.7017 50.6862 66.6738 69.0089 56.5608 87.2586C41.9052 74.8792 24.8181 64.7141 14.4868 48.133C9.20551 39.6391 4.34368 27.0817 9.66026 17.5205C12.0618 13.1941 18.206 13.9621 22.2366 15.4678C26.94 17.2231 30.8771 20.5764 34.0687 24.3874C41.3946 33.1453 44.7446 44.4381 47.9059 55.1982C48.251 56.3654 55.0649 51.1559 55.1261 49.4104C55.6067 36.9604 55.9991 24.0032 60.5319 12.2358C61.6643 9.29965 62.5512 6.23268 66.3226 6.63617C69.418 6.96784 71.2432 9.30972 72.6522 11.826C75.559 17.1331 77.1992 23.0423 77.444 29.0895Z" fill="white"/>
</svg>
