<svg width="61" height="60" viewBox="0 0 61 60" fill="none" xmlns="http://www.w3.org/2000/svg">
<path d="M39 26C39 22.2 45 16 45 16C45 16 51 22.2 51 26C51 29.8 48 32 45 32C42 32 39 29.8 39 26Z" stroke="#5B2215" stroke-width="2" stroke-miterlimit="10" stroke-linecap="square"/>
<path d="M19 12C19 8.2 25 2 25 2C25 2 31 8.2 31 12C31 15.8 28 18 25 18C22 18 19 15.8 19 12Z" stroke="#5B2215" stroke-width="2" stroke-miterlimit="10" stroke-linecap="square"/>
<path d="M9 32H11C15.6 32 20.6 34.4 23 38H31C35 38 39 42 39 46H21" stroke="#5B2215" stroke-width="2" stroke-miterlimit="10"/>
<path d="M37.8 42H51C58.2 42 59 46 59 46L30.4 57.6C28.2 58.6 25.6 58.4 23.4 57.4L9 50" stroke="#5B2215" stroke-width="2" stroke-miterlimit="10"/>
<path d="M9 28H1V54H9V28Z" stroke="#5B2215" stroke-width="2" stroke-miterlimit="10" stroke-linecap="square"/>
</svg>
